<?xml version="1.0" standalone="no"?>
<!DOCTYPE svg PUBLIC "-//W3C//DTD SVG 20010904//EN"
 "http://www.w3.org/TR/2001/REC-SVG-20010904/DTD/svg10.dtd">
<svg version="1.0" xmlns="http://www.w3.org/2000/svg"
 width="194.000000pt" height="194.000000pt" viewBox="0 0 194.000000 194.000000"
 preserveAspectRatio="xMidYMid meet">
<metadata>
Created by potrace 1.11, written by Peter Selinger 2001-2013
</metadata>
<g transform="translate(0.000000,194.000000) scale(0.100000,-0.100000)"
fill="#000000" stroke="none">
<path d="M206 1808 c22 -143 88 -327 152 -423 l21 -30 -77 -3 c-42 -2 -80 -6
-84 -10 -10 -11 34 -56 107 -112 103 -78 235 -109 326 -76 l37 13 -9 -31 c-36
-125 -30 -328 12 -442 38 -102 115 -163 192 -151 24 3 43 -3 74 -24 149 -103
352 -134 541 -83 21 6 22 3 22 -44 0 -67 16 -100 58 -118 42 -17 76 -10 102
23 27 35 25 56 -12 130 l-33 65 22 16 c11 9 37 30 57 45 27 21 36 35 36 57 0
61 -71 91 -121 51 -74 -57 -208 -101 -312 -101 -123 0 -299 62 -305 108 -4 25
5 28 27 8 28 -25 143 -68 196 -73 l52 -5 7 198 c4 110 4 207 1 217 -4 9 -15
17 -24 17 -9 0 -75 -61 -148 -137 -129 -135 -132 -137 -152 -119 -19 18 -18
19 72 99 177 159 201 183 194 202 -7 16 -23 17 -220 10 -116 -4 -213 -9 -215
-10 -6 -5 29 -140 48 -183 21 -46 17 -47 -29 -4 -24 23 -51 131 -51 207 0 159
52 288 159 394 81 80 164 126 273 150 87 18 116 41 53 41 -21 0 -64 -7 -98
-16 -183 -47 -325 -163 -411 -335 l-43 -86 -6 62 c-17 180 -150 351 -384 493
-107 65 -115 65 -107 10z"/>
<path d="M1168 1595 c-68 -18 -188 -89 -188 -110 0 -4 44 -54 98 -113 183
-199 203 -215 216 -169 3 12 3 109 -1 215 l-6 192 -36 -1 c-20 0 -57 -7 -83
-14z"/>
<path d="M893 1392 c-51 -76 -71 -129 -87 -224 l-7 -38 64 0 c35 0 132 -3 215
-7 209 -9 209 -10 16 174 -82 79 -153 143 -159 143 -5 0 -24 -21 -42 -48z"/>
<path d="M1334 1014 c-7 -27 4 -406 12 -413 3 -3 33 0 67 6 70 12 159 51 209
93 l33 28 -139 146 c-159 168 -172 178 -182 140z"/>
<path d="M993 438 c-50 -84 -54 -154 -10 -183 55 -36 95 19 61 83 -10 19 -21
58 -24 86 l-5 51 -22 -37z"/>
<path d="M1422 237 c-43 -51 -65 -157 -39 -190 21 -27 60 -31 82 -7 17 19 18
25 6 53 -33 82 -42 113 -36 134 6 26 2 29 -13 10z"/>
</g>
</svg>
